<svg xmlns="http://www.w3.org/2000/svg" width="336.9" height="118.5"><defs><clipPath id="a"><path fill="none" d="M0 0h84v86H0z"/></clipPath><filter id="b" width="99" height="90" x="206.9" y="7.5" filterUnits="userSpaceOnUse"><feOffset dy="3"/><feGaussianBlur result="d" stdDeviation="3"/><feFlood flood-opacity=".2"/><feComposite in2="d" operator="in"/><feComposite in="SourceGraphic"/></filter><filter id="c" width="99" height="90" x="221.9" y="18.5" filterUnits="userSpaceOnUse"><feOffset dy="3"/><feGaussianBlur result="f" stdDeviation="3"/><feFlood flood-opacity=".2"/><feComposite in2="f" operator="in"/><feComposite in="SourceGraphic"/></filter><filter id="d" width="99" height="90" x="237.9" y="28.5" filterUnits="userSpaceOnUse"><feOffset dy="3"/><feGaussianBlur result="h" stdDeviation="3"/><feFlood flood-opacity=".2"/><feComposite in2="h" operator="in"/><feComposite in="SourceGraphic"/></filter></defs><g><g><g clip-path="url(#a)" transform="translate(.4 17)"><g transform="translate(-25 -79)"><rect width="53.8" height="11.4" fill="rgba(210,41,41,0.25)" rx="5.7" transform="translate(28.6 82.6)"/><g fill="none" stroke="#acacac"><path stroke="none" d="M25 79h83.9v17.8H25z"/><path d="M25.5 79.5h82.9v16.8H25.5z"/></g></g><g transform="translate(58 -79)"><rect width="53.8" height="11.4" fill="rgba(210,41,41,0.25)" rx="5.7" transform="translate(28.6 82.6)"/><g fill="none" stroke="#acacac"><path stroke="none" d="M25 79h83.9v17.8H25z"/><path d="M25.5 79.5h82.9v16.8H25.5z"/></g></g><g transform="translate(-25 -62)"><rect width="53.8" height="11.4" fill="rgba(210,41,41,0.25)" rx="5.7" transform="translate(28.6 82.6)"/><g fill="none" stroke="#acacac"><path stroke="none" d="M25 79h83.9v17.8H25z"/><path d="M25.5 79.5h82.9v16.8H25.5z"/></g></g><g transform="translate(58 -62)"><rect width="53.8" height="11.4" fill="rgba(210,41,41,0.25)" rx="5.7" transform="translate(28.6 82.6)"/><g fill="none" stroke="#acacac"><path stroke="none" d="M25 79h83.9v17.8H25z"/><path d="M25.5 79.5h82.9v16.8H25.5z"/></g></g><g transform="translate(-25 -45)"><rect width="53.8" height="11.4" fill="rgba(210,41,41,0.25)" rx="5.7" transform="translate(28.6 82.6)"/><g fill="none" stroke="#acacac"><path stroke="none" d="M25 79h83.9v17.8H25z"/><path d="M25.5 79.5h82.9v16.8H25.5z"/></g></g><g transform="translate(58 -45)"><rect width="53.8" height="11.4" fill="rgba(210,41,41,0.25)" rx="5.7" transform="translate(28.6 82.6)"/><g fill="none" stroke="#acacac"><path stroke="none" d="M25 79h83.9v17.8H25z"/><path d="M25.5 79.5h82.9v16.8H25.5z"/></g></g><g transform="translate(-25 -28)"><rect width="53.8" height="11.4" fill="rgba(210,41,41,0.25)" rx="5.7" transform="translate(28.6 82.6)"/><g fill="none" stroke="#acacac"><path stroke="none" d="M25 79h83.9v17.8H25z"/><path d="M25.5 79.5h82.9v16.8H25.5z"/></g></g><g transform="translate(58 -28)"><rect width="53.8" height="11.4" fill="rgba(210,41,41,0.25)" rx="5.7" transform="translate(28.6 82.6)"/><g fill="none" stroke="#acacac"><path stroke="none" d="M25 79h83.9v17.8H25z"/><path d="M25.5 79.5h82.9v16.8H25.5z"/></g></g><g transform="translate(-25 -11)"><rect width="53.8" height="11.4" fill="rgba(210,41,41,0.25)" rx="5.7" transform="translate(28.6 82.6)"/><g fill="none" stroke="#acacac"><path stroke="none" d="M25 79h83.9v17.8H25z"/><path d="M25.5 79.5h82.9v16.8H25.5z"/></g></g><g transform="translate(58 -11)"><rect width="53.8" height="11.4" fill="rgba(210,41,41,0.25)" rx="5.7" transform="translate(28.6 82.6)"/><g fill="none" stroke="#acacac"><path stroke="none" d="M25 79h83.9v17.8H25z"/><path d="M25.5 79.5h82.9v16.8H25.5z"/></g></g><g transform="translate(-25 6)"><rect width="53.8" height="11.4" fill="rgba(210,41,41,0.25)" rx="5.7" transform="translate(28.6 82.6)"/><g fill="none" stroke="#acacac"><path stroke="none" d="M25 79h83.9v17.8H25z"/><path d="M25.5 79.5h82.9v16.8H25.5z"/></g></g><g transform="translate(58 6)"><rect width="53.8" height="11.4" fill="rgba(210,41,41,0.25)" rx="5.7" transform="translate(28.6 82.6)"/><g fill="none" stroke="#acacac"><path stroke="none" d="M25 79h83.9v17.8H25z"/><path d="M25.5 79.5h82.9v16.8H25.5z"/></g></g></g><path fill="#c4c4c4" d="M8.8 3.6H52c2.7 0 4.9 2.5 4.9 5.6S54.7 15 52 15H8.8C6 15 3.9 12.4 3.9 9.2s2.2-5.6 4.9-5.6zM92.8 3.6H136c2.7 0 4.9 2.5 4.9 5.6S138.7 15 136 15H92.8c-2.7 0-4.9-2.5-4.9-5.7s2.2-5.6 4.9-5.6z"/><g fill="none" stroke="#acacac"><path stroke="none" d="M.4 0h83.9v17.8H.3z"/><path d="M.9.5h82.9v16.8H.8z"/></g><g fill="none" stroke="#acacac"><path stroke="none" d="M83.4 0h83.9v17.8h-84z"/><path d="M83.9.5h82.9v16.8h-83z"/></g><g clip-path="url(#a)" transform="translate(83.4 17)"><g transform="translate(-25 -79)"><rect width="76.8" height="11.4" fill="rgba(42,195,67,0.18)" rx="5.7" transform="translate(28.6 82.6)"/><g fill="none" stroke="#acacac"><path stroke="none" d="M25 79h83.9v17.8H25z"/><path d="M25.5 79.5h82.9v16.8H25.5z"/></g></g><g transform="translate(58 -79)"><rect width="76.8" height="11.4" fill="rgba(42,195,67,0.18)" rx="5.7" transform="translate(28.6 82.6)"/><g fill="none" stroke="#acacac"><path stroke="none" d="M25 79h83.9v17.8H25z"/><path d="M25.5 79.5h82.9v16.8H25.5z"/></g></g><g transform="translate(-25 -62)"><rect width="76.8" height="11.4" fill="rgba(42,195,67,0.18)" rx="5.7" transform="translate(28.6 82.6)"/><g fill="none" stroke="#acacac"><path stroke="none" d="M25 79h83.9v17.8H25z"/><path d="M25.5 79.5h82.9v16.8H25.5z"/></g></g><g transform="translate(58 -62)"><rect width="76.8" height="11.4" fill="rgba(42,195,67,0.18)" rx="5.7" transform="translate(28.6 82.6)"/><g fill="none" stroke="#acacac"><path stroke="none" d="M25 79h83.9v17.8H25z"/><path d="M25.5 79.5h82.9v16.8H25.5z"/></g></g><g transform="translate(-25 -45)"><rect width="76.8" height="11.4" fill="rgba(42,195,67,0.18)" rx="5.7" transform="translate(28.6 82.6)"/><g fill="none" stroke="#acacac"><path stroke="none" d="M25 79h83.9v17.8H25z"/><path d="M25.5 79.5h82.9v16.8H25.5z"/></g></g><g transform="translate(58 -45)"><rect width="76.8" height="11.4" fill="rgba(42,195,67,0.18)" rx="5.7" transform="translate(28.6 82.6)"/><g fill="none" stroke="#acacac"><path stroke="none" d="M25 79h83.9v17.8H25z"/><path d="M25.5 79.5h82.9v16.8H25.5z"/></g></g><g transform="translate(-25 -28)"><rect width="76.8" height="11.4" fill="rgba(42,195,67,0.18)" rx="5.7" transform="translate(28.6 82.6)"/><g fill="none" stroke="#acacac"><path stroke="none" d="M25 79h83.9v17.8H25z"/><path d="M25.5 79.5h82.9v16.8H25.5z"/></g></g><g transform="translate(58 -28)"><rect width="76.8" height="11.4" fill="rgba(42,195,67,0.18)" rx="5.7" transform="translate(28.6 82.6)"/><g fill="none" stroke="#acacac"><path stroke="none" d="M25 79h83.9v17.8H25z"/><path d="M25.5 79.5h82.9v16.8H25.5z"/></g></g><g transform="translate(-25 -11)"><rect width="76.8" height="11.4" fill="rgba(42,195,67,0.18)" rx="5.7" transform="translate(28.6 82.6)"/><g fill="none" stroke="#acacac"><path stroke="none" d="M25 79h83.9v17.8H25z"/><path d="M25.5 79.5h82.9v16.8H25.5z"/></g></g><g transform="translate(58 -11)"><rect width="76.8" height="11.4" fill="rgba(42,195,67,0.18)" rx="5.7" transform="translate(28.6 82.6)"/><g fill="none" stroke="#acacac"><path stroke="none" d="M25 79h83.9v17.8H25z"/><path d="M25.5 79.5h82.9v16.8H25.5z"/></g></g><g transform="translate(-25 6)"><rect width="76.8" height="11.4" fill="rgba(42,195,67,0.18)" rx="5.7" transform="translate(28.6 82.6)"/><g fill="none" stroke="#acacac"><path stroke="none" d="M25 79h83.9v17.8H25z"/><path d="M25.5 79.5h82.9v16.8H25.5z"/></g></g><g transform="translate(58 6)"><rect width="76.8" height="11.4" fill="rgba(42,195,67,0.18)" rx="5.7" transform="translate(28.6 82.6)"/><g fill="none" stroke="#acacac"><path stroke="none" d="M25 79h83.9v17.8H25z"/><path d="M25.5 79.5h82.9v16.8H25.5z"/></g></g></g></g><g><g fill="#fff"><path d="M43.7 57.1V117H0V70.3L14 57z"/><path fill="rgba(112,112,112,0.84)" d="M14.4 58.1L1 70.7V116h41.7V58.1H14.4m-.4-1h29.7V117H0V70.3L14 57z"/></g><path fill="#fff" stroke="rgba(112,112,112,0.84)" d="M.3 70.6h14"/><path fill="none" stroke="rgba(112,112,112,0.84)" d="M14.2 57.5v13.2M.3 70.7l14-13.2"/><text fill="#413636" font-family="SegoeUI, Segoe UI" font-size="20" transform="translate(6.4 112)"><tspan x="0" y="0">.xlsx</tspan></text></g><g><g opacity=".5" transform="translate(-42.6 -126)"><g filter="url(#b)" transform="translate(42.6 126)"><path fill="#fff" stroke="#707070" d="M216.3 14h80v71h-80z"/></g><rect width="53" height="12" fill="#f4c9c9" rx="6" transform="translate(262 144)"/><rect width="62" height="7" fill="#d8f4dd" rx="3.5" transform="translate(268 163)"/><rect width="62" height="7" fill="#d8f4dd" rx="3.5" transform="translate(268 176)"/><rect width="32" height="7" fill="#d8f4dd" rx="3.5" transform="translate(268 187)"/><g stroke="#707070"><g fill="#fff" opacity=".4"><path stroke="none" d="M322.2 195.2H337V209h-14.8z"/><path fill="none" d="M322.7 195.7h13.8v12.8h-13.8z"/></g><g fill="none" stroke-linecap="round" stroke-width="3" opacity=".9"><path d="M325.7 203.5l3.4 3.9M333.8 197l-4.7 10.4"/></g></g></g><g opacity=".8" transform="translate(-27.6 -115)"><g filter="url(#c)" transform="translate(27.6 115)"><path fill="#fff" stroke="#707070" d="M231.3 25h80v71h-80z"/></g><rect width="53" height="12" fill="#f4c9c9" rx="6" transform="translate(262 144)"/><rect width="62" height="7" fill="#d8f4dd" rx="3.5" transform="translate(268 163)"/><rect width="62" height="7" fill="#d8f4dd" rx="3.5" transform="translate(268 176)"/><rect width="32" height="7" fill="#d8f4dd" rx="3.5" transform="translate(268 187)"/><g stroke="#707070"><g fill="#fff" opacity=".4"><path stroke="none" d="M322.2 195.2H337V209h-14.8z"/><path fill="none" d="M322.7 195.7h13.8v12.8h-13.8z"/></g><g fill="none" stroke-linecap="round" stroke-width="3" opacity=".9"><path d="M325.7 203.5l3.4 3.9M333.8 197l-4.7 10.4"/></g></g></g><g transform="translate(-11.6 -105)"><g filter="url(#d)" transform="translate(11.7 105)"><path fill="#fff" stroke="#707070" d="M247.3 35h80v71h-80z"/></g><rect width="53" height="12" fill="#f4c9c9" rx="6" transform="translate(262 144)"/><rect width="62" height="7" fill="#d8f4dd" rx="3.5" transform="translate(268 163)"/><rect width="62" height="7" fill="#d8f4dd" rx="3.5" transform="translate(268 176)"/><rect width="32" height="7" fill="#d8f4dd" rx="3.5" transform="translate(268 187)"/><g stroke="#707070"><g fill="#fff" opacity=".4"><path stroke="none" d="M322.2 195.2H337V209h-14.8z"/><path fill="none" d="M322.7 195.7h13.8v12.8h-13.8z"/></g><g fill="none" stroke-linecap="round" stroke-width="3" opacity=".9"><path d="M325.7 203.5l3.4 3.9M333.8 197l-4.7 10.4"/></g></g></g></g><g opacity=".8"><g><path fill="rgba(0,0,0,0)" d="M107.5 25h54.7v54.7h-54.7z"/><path d="M150 44l-6.4 6.4a1.1 1.1 0 0 0 .8 2h4.1A13.7 13.7 0 0 1 135 66a13.3 13.3 0 0 1-5.2-1 2.2 2.2 0 0 0-2.3.6 2.3 2.3 0 0 0 .7 3.7 17.8 17.8 0 0 0 6.8 1.3A18.2 18.2 0 0 0 153 52.4h4a1.1 1.1 0 0 0 .8-2l-6.3-6.3a1.1 1.1 0 0 0-1.6 0zm-28.8 8.4a13.7 13.7 0 0 1 13.7-13.7 13.3 13.3 0 0 1 5 1 2.2 2.2 0 0 0 2.4-.5 2.3 2.3 0 0 0-.7-3.7 17.8 17.8 0 0 0-6.7-1.3 18.2 18.2 0 0 0-18.3 18.2h-4a1.1 1.1 0 0 0-.8 2l6.3 6.3a1.1 1.1 0 0 0 1.6 0l6.4-6.4a1.1 1.1 0 0 0-.8-2z"/></g><g><path fill="rgba(0,0,0,0)" d="M121.5 41.3h54.2v54.2h-54.2z"/><path d="M198.7 66.2h-61a2.4 2.4 0 0 0-2.6 2.2 2.4 2.4 0 0 0 2.5 2.3h61v4a1.3 1.3 0 0 0 2.3.8l7-6.3a1 1 0 0 0 0-1.6l-7-6.3a1.3 1.3 0 0 0-2.2.8z"/></g></g></g></svg>